# xmcd CD database file
#
# Track frame offsets:
#	150
#	15405
#	32615
#	48370
#	61027
#	73402
#	89760
#	105662
#	117677
#	127847
#	137912
#	148022
#	161860
#	182475
#
# Disc length: 2682 seconds
#
# Revision: 0
# Processed by: cddbd v1.5.2PL0 Copyright (c) Steve Scherf et al.
# Submitted via: CDex 1.70beta2
#
DISCID=c90a780e
DTITLE=Various Artist - Jak se vaří v Lucii
DYEAR=1900
DGENRE=Country
TTITLE0=Rychlejší koně
TTITLE1=Zatčení
TTITLE2=Cant you hear me calling
TTITLE3=Vichřice
TTITLE4=Věčný trápení
TTITLE5=Ve skalách
TTITLE6=Vrať se mi blázne
TTITLE7=Starý hrad
TTITLE8=Stýskání
TTITLE9=hraj
TTITLE10=Thing wat youve done
TTITLE11=Půlnoční waltz
TTITLE12=Návrat
TTITLE13=Javorovej list
EXTD=
EXTT0=
EXTT1=
EXTT2=
EXTT3=
EXTT4=
EXTT5=
EXTT6=
EXTT7=
EXTT8=
EXTT9=
EXTT10=
EXTT11=
EXTT12=
EXTT13=
PLAYORDER=
